<?xml version="1.0"?>
<svg xmlns="http://www.w3.org/2000/svg" xmlns:xlink="http://www.w3.org/1999/xlink" xmlns:svgjs="http://svgjs.com/svgjs" version="1.1" width="512" height="512" x="0" y="0" viewBox="0 0 512 512.21264" style="enable-background:new 0 0 512 512" xml:space="preserve" class=""><g><path xmlns="http://www.w3.org/2000/svg" d="m36.933594 140.90625-23.296875 25.308594c-3.066407 3.3125-4.738281 7.679687-4.667969 12.191406.167969 12.570312.730469 37.136719 2.507812 58.871094l11.078126-31.160156c5.582031-15.597657 19.429687-26.753907 35.855468-28.894532-.210937-4.632812 1.460938-9.15625 4.636719-12.535156l48.886719-44.03125 34.71875-33.332031c9.921875-10.070313 10.1875-26.15625.601562-36.546875l.554688-.714844c-.246094-.21875-.476563-.449219-.6875-.699219l-.601563.601563c-3.457031-3.363282-8.964843-3.363282-12.421875 0l-43.359375 40.605468c-.40625.480469-.867187.910157-1.367187 1.289063l-51.835938 48.507813c-.191406.191406-.390625.371093-.601562.539062zm0 0" fill="#ffba0a" data-original="#000000" style="" class=""/><path xmlns="http://www.w3.org/2000/svg" d="m75.988281 176.765625h26.347657c-.894532-7.617187-1.171876-15.292969-.835938-22.953125zm0 0" fill="#ffba0a" data-original="#000000" style="" class=""/><path xmlns="http://www.w3.org/2000/svg" d="m67.433594 43.21875c-4.972656-4.925781-11.6875-7.695312-18.6875-7.695312-4.875 0-8.828125 3.953124-8.828125 8.828124v69.59375l35.308593-33.046874v-18.894532c-.011718-7.042968-2.8125-13.796875-7.792968-18.785156zm0 0" fill="#ffba0a" data-original="#000000" style="" class=""/><path xmlns="http://www.w3.org/2000/svg" d="m246.007812 229.730469c-18.273437-13.417969-50.847656-40.078125-64.355468-67.179688-16.949219-33.898437-4.765625-58.789062 4.148437-76.886719 7.152344-14.476562 9.535157-21.011718 5.210938-27.628906-4.714844-8.597656-14.820313-12.691406-24.1875-9.800781 8.996093 17.058594 5.847656 37.984375-7.769531 51.640625l-37.605469 35.839844c-2.695313 13.519531-3.140625 27.386718-1.324219 41.050781h19.949219c5.492187.035156 10.847656 1.726563 15.363281 4.855469l45.726562 32.394531c6.414063 4.59375 10.25 11.972656 10.328126 19.863281 0 4.453125-1.222657 8.816406-3.53125 12.625-.53125.882813-1.238282 1.765625-1.855469 2.648438l12.09375 8.648437c10.292969 7.46875 13.203125 21.550781 6.710937 32.484375-6.179687 10.359375-16.339844 17.726563-28.105468 20.378906-11.765626 2.652344-24.105469.363282-34.128907-6.339843l-17.65625-11.832031c-1.4375-.953126-3.132812-1.445313-4.855469-1.410157h-27.1875c-3.785156-.0625-7.175781 2.328125-8.386718 5.914063-.53125 1.855468-1.324219 4.148437-2.296875 6.707031-9.269531 25.601563-12.359375 43.785156 2.472656 49.789063 4.207031 2.015624 6.121094 6.957031 4.371094 11.28125-1.753907 4.320312-6.570313 6.535156-10.992188 5.050781-33.632812-13.507813-18.804687-54.554688-12.445312-72.121094.792969-2.296875 1.585937-4.328125 2.117187-6.003906 3.472656-10.945313 13.671875-18.355469 25.160156-18.273438h27.1875c5.214844-.019531 10.316407 1.519531 14.652344 4.414063l17.65625 11.828125c6.003906 4.03125 13.402344 5.40625 20.453125 3.800781 7.050781-1.601562 13.128907-6.042969 16.800781-12.273438 1.863282-3.019531 1.050782-6.96875-1.855468-9.003906l-40.695313-29.21875c-4.492187-3.175781-9.859375-4.871094-15.359375-4.855468h-69.472656c-11.207031-.007813-21.195312 7.074218-24.894531 17.652343l-37.78125 107.257813c-2.652344 7.539062.058593 15.917968 6.621093 20.480468l142.917969 97.984376c7.230469 4.941406 11.558594 13.132812 11.5625 21.894531-.011719 2.328125.902344 4.570312 2.539063 6.226562 1.640625 1.652344 3.871094 2.589844 6.203125 2.597657h128.351562c2.691407.007812 5.230469-1.230469 6.886719-3.351563 1.675781-2.113281 2.292969-4.878906 1.675781-7.503906l-12.886719-47.582031c-4.960937-22.683594-6.449218-45.988282-4.414062-69.121094 6.707031-84.65625-51.378906-146.269532-63.117188-154.921875zm-21.277343 229.074219c-4.875 0-8.824219-3.953126-8.824219-8.828126 0-30.984374-52.878906-55.4375-73.183594-62.320312-4.195312-1.824219-6.300781-6.550781-4.855468-10.890625 1.445312-4.335937 5.96875-6.851563 10.417968-5.792969 3.441406 1.144532 85.273438 29.042969 85.273438 79.003906 0 4.875-3.949219 8.828126-8.828125 8.828126zm35.222656-70.621094c-30.1875 0-52.613281-21.097656-66.117187-38.839844-2.691407-3.882812-1.851563-9.195312 1.90625-12.054688 3.761718-2.863281 9.105468-2.253906 12.128906 1.375 11.125 14.476563 29.132812 31.867188 52.082031 31.867188 4.875 0 8.828125 3.949219 8.828125 8.828125 0 4.875-3.953125 8.824219-8.828125 8.824219zm0 0" fill="#ffba0a" data-original="#000000" style="" class=""/><path xmlns="http://www.w3.org/2000/svg" d="m7.839844 339.402344 1.144531.777344 31.78125-90.304688c6.214844-17.628906 22.859375-29.425781 41.550781-29.457031h69.472656c9.183594-.007813 18.140626 2.871093 25.601563 8.226562l14.335937 10.257813c.371094-.503906.777344-1.015625 1.085938-1.527344.625-1.070312.949219-2.292969.933594-3.53125-.035156-2.175781-1.113282-4.199219-2.902344-5.4375l-45.648438-32.34375c-1.496093-1.058594-3.277343-1.632812-5.109374-1.644531h-75.75c-11.253907-.050781-21.320313 6.988281-25.132813 17.578125l-38.066406 107.113281c-2.710938 7.5.058593 15.882813 6.703125 20.292969zm0 0" fill="#ffba0a" data-original="#000000" style="" class=""/><path xmlns="http://www.w3.org/2000/svg" d="m213.953125 2.957031-8.414063 8.828125c-2.296874 2.261719-3.179687 5.59375-2.304687 8.695313.878906 3.101562 3.375 5.480469 6.519531 6.203125 3.140625.722656 6.425782-.324219 8.570313-2.734375l8.410156-8.828125c2.300781-2.257813 3.183594-5.59375 2.308594-8.695313-.878907-3.101562-3.375-5.480469-6.519531-6.199219-3.140626-.722656-6.425782.324219-8.570313 2.730469zm0 0" fill="#ffba0a" data-original="#000000" style="" class=""/><path xmlns="http://www.w3.org/2000/svg" d="m244.851562 36.484375-11.476562 3.230469c-4.25 1.191406-6.96875 5.335937-6.367188 9.710937.605469 4.371094 4.34375 7.625 8.757813 7.617188.8125.003906 1.621094-.109375 2.402344-.332031l11.476562-3.222657c4.695313-1.324219 7.429688-6.199219 6.109375-10.894531-1.324218-4.695312-6.199218-7.429688-10.894531-6.109375zm0 0" fill="#ffba0a" data-original="#000000" style="" class=""/><path xmlns="http://www.w3.org/2000/svg" d="m237.867188 98.71875c.78125.222656 1.589843.332031 2.402343.328125 4.410157-.003906 8.140625-3.261719 8.742188-7.628906.597656-4.371094-2.121094-8.511719-6.367188-9.699219l-11.476562-3.230469c-4.695313-1.320312-9.570313 1.417969-10.890625 6.113281-1.316406 4.691407 1.417968 9.570313 6.113281 10.886719zm0 0" fill="#ffba0a" data-original="#000000" style="" class=""/></g></svg>
