<?xml version="1.0" encoding="UTF-8" standalone="no"?>
<!-- Created with Inkscape (http://www.inkscape.org/) -->

<svg
   xmlns:dc="http://purl.org/dc/elements/1.1/"
   xmlns:cc="http://creativecommons.org/ns#"
   xmlns:rdf="http://www.w3.org/1999/02/22-rdf-syntax-ns#"
   xmlns:svg="http://www.w3.org/2000/svg"
   xmlns="http://www.w3.org/2000/svg"
   xmlns:sodipodi="http://sodipodi.sourceforge.net/DTD/sodipodi-0.dtd"
   xmlns:inkscape="http://www.inkscape.org/namespaces/inkscape"
   width="1080"
   height="1080"
   viewBox="0 0 285.74999 285.75001"
   version="1.1"
   id="svg4199"
   inkscape:version="0.92.3 (2405546, 2018-03-11)"
   sodipodi:docname="hero_cloud_two.svg">
  <defs
     id="defs4193" />
  <sodipodi:namedview
     id="base"
     pagecolor="#ffffff"
     bordercolor="#666666"
     borderopacity="1.0"
     inkscape:pageopacity="0.0"
     inkscape:pageshadow="2"
     inkscape:zoom="0.35"
     inkscape:cx="610"
     inkscape:cy="560"
     inkscape:document-units="mm"
     inkscape:current-layer="layer1"
     showgrid="false"
     units="px"
     inkscape:window-width="1366"
     inkscape:window-height="715"
     inkscape:window-x="-8"
     inkscape:window-y="-8"
     inkscape:window-maximized="1" />
  <metadata
     id="metadata4196">
    <rdf:RDF>
      <cc:Work
         rdf:about="">
        <dc:format>image/svg+xml</dc:format>
        <dc:type
           rdf:resource="http://purl.org/dc/dcmitype/StillImage" />
        <dc:title></dc:title>
      </cc:Work>
    </rdf:RDF>
  </metadata>
  <g
     inkscape:label="Layer 1"
     inkscape:groupmode="layer"
     id="layer1"
     transform="translate(0,-11.249983)">
    <g
       transform="matrix(2.9657475,0,0,2.9657475,-421.19594,42.69092)"
       id="g4762">
      <g
         id="g420"
         transform="matrix(0.01516535,0,0,-0.01516535,11.087205,275.62119)">
        <path
           d="m 11660.6,15847.8 c -65.8,0 -129.7,-8.5 -190.4,-24.3 -220.4,289.5 -568.6,476.5 -960.6,476.5 -666.27,0 -1206.35,-540.1 -1206.35,-1206.4 h 1603.15 809.6 698.7 c 0,416.5 -337.6,754.2 -754.1,754.2"
           style="fill:#ffffff;fill-opacity:1;fill-rule:nonzero;stroke:none"
           id="path422"
           inkscape:connector-curvature="0" />
      </g>
      <g
         id="g424"
         transform="matrix(0.01519145,0,0,-0.01519145,11.087205,275.62119)">
        <path
           d="m 9315.6,15095.7 h 3049.3 c -14.7,386.8 -334,696.9 -724.4,696.9 -61.9,0 -123.5,-7.9 -183,-23.4 -10.9,-2.8 -22.5,1.2 -29.3,10.2 -224.8,295.3 -566.2,464.6 -936.6,464.6 -639.34,0 -1161.1,-512.5 -1176,-1148.3 z m 3077.8,-56 H 9287.27 c -15.5,0 -27.99,12.5 -27.99,28 0,679.5 552.78,1232.3 1232.32,1232.3 195.7,0 382.9,-44.6 556.3,-132.5 159.9,-81 302.5,-198.2 413.5,-339.6 58.5,13.7 118.7,20.6 179.1,20.6 430.6,0 780.9,-350.2 780.9,-780.8 0,-15.5 -12.5,-28 -28,-28"
           style="fill:#231f20;fill-opacity:1;fill-rule:nonzero;stroke:none"
           id="path426"
           inkscape:connector-curvature="0" />
      </g>
      <g
         id="g428"
         transform="matrix(0.01450281,0,0,-0.01450281,11.087205,275.62119)">
        <path
           d="m 14106.9,16300 c -285.6,0 -516.9,-231.4 -516.9,-516.9 h 1033.7 c 0,285.5 -231.4,516.9 -516.8,516.9"
           style="fill:#ffffff;fill-opacity:1;fill-rule:nonzero;stroke:none"
           id="path430"
           inkscape:connector-curvature="0" />
      </g>
      <g
         id="g432"
         transform="matrix(0.01452891,0,0,-0.01452891,11.087205,275.62119)">
        <path
           d="m 13595.7,15784.1 h 971.6 c -15.2,254.7 -227.2,457.4 -485.8,457.4 -258.5,0 -470.6,-202.7 -485.8,-457.4 z m 1001.7,-58.6 h -1031.8 c -16.2,0 -29.3,13.1 -29.3,29.3 0,300.6 244.6,545.2 545.2,545.2 300.6,0 545.2,-244.6 545.2,-545.2 0,-16.2 -13.1,-29.3 -29.3,-29.3"
           style="fill:#231f20;fill-opacity:1;fill-rule:nonzero;stroke:none"
           id="path434"
           inkscape:connector-curvature="0" />
      </g>
      <g
         id="g506"
         transform="matrix(0.01406906,0,0,-0.01406906,11.087205,275.62119)">
        <path
           d="m 10028.2,16239.6 h -235.47 c -16.74,0 -30.22,13.5 -30.22,30.2 0,16.7 13.48,30.2 30.22,30.2 h 235.47 c 16.7,0 30.2,-13.5 30.2,-30.2 0,-16.7 -13.5,-30.2 -30.2,-30.2"
           style="fill:#231f20;fill-opacity:1;fill-rule:nonzero;stroke:none"
           id="path508"
           inkscape:connector-curvature="0" />
      </g>
      <g
         id="g510"
         transform="matrix(0.01406906,0,0,-0.01406906,11.087205,275.62119)">
        <path
           d="m 9580.1,16239.6 h -181.32 c -16.74,0 -30.22,13.5 -30.22,30.2 0,16.7 13.48,30.2 30.22,30.2 h 181.32 c 16.67,0 30.22,-13.5 30.22,-30.2 0,-16.7 -13.55,-30.2 -30.22,-30.2"
           style="fill:#231f20;fill-opacity:1;fill-rule:nonzero;stroke:none"
           id="path512"
           inkscape:connector-curvature="0" />
      </g>
      <g
         id="g514"
         transform="matrix(0.01406906,0,0,-0.01406906,11.087205,275.62119)">
        <path
           d="m 13546.5,16239.6 h -164.4 c -16.7,0 -30.2,13.5 -30.2,30.2 0,16.7 13.5,30.2 30.2,30.2 h 164.4 c 16.8,0 30.3,-13.5 30.3,-30.2 0,-16.7 -13.5,-30.2 -30.3,-30.2"
           style="fill:#231f20;fill-opacity:1;fill-rule:nonzero;stroke:none"
           id="path516"
           inkscape:connector-curvature="0" />
      </g>
      <g
         id="g518"
         transform="matrix(0.01406906,0,0,-0.01406906,11.087205,275.62119)">
        <path
           d="m 15609.2,16239.6 h -534.7 c -16.6,0 -30.2,13.5 -30.2,30.2 0,16.7 13.6,30.2 30.2,30.2 h 534.7 c 16.6,0 30.2,-13.5 30.2,-30.2 0,-16.7 -13.6,-30.2 -30.2,-30.2"
           style="fill:#231f20;fill-opacity:1;fill-rule:nonzero;stroke:none"
           id="path520"
           inkscape:connector-curvature="0" />
      </g>
      <g
         id="g522"
         transform="matrix(0.01406906,0,0,-0.01406906,11.087205,275.62119)">
        <path
           d="m 16062.5,16239.6 h -170 c -16.7,0 -30.3,13.5 -30.3,30.2 0,16.7 13.6,30.2 30.3,30.2 h 170 c 16.6,0 30.2,-13.5 30.2,-30.2 0,-16.7 -13.6,-30.2 -30.2,-30.2"
           style="fill:#231f20;fill-opacity:1;fill-rule:nonzero;stroke:none"
           id="path524"
           inkscape:connector-curvature="0" />
      </g>
    </g>
  </g>
</svg>
