<?xml version="1.0" encoding="UTF-8" standalone="no"?>
<!-- Created with Inkscape (http://www.inkscape.org/) -->

<svg
   xmlns:dc="http://purl.org/dc/elements/1.1/"
   xmlns:cc="http://creativecommons.org/ns#"
   xmlns:rdf="http://www.w3.org/1999/02/22-rdf-syntax-ns#"
   xmlns:svg="http://www.w3.org/2000/svg"
   xmlns="http://www.w3.org/2000/svg"
   xmlns:sodipodi="http://sodipodi.sourceforge.net/DTD/sodipodi-0.dtd"
   xmlns:inkscape="http://www.inkscape.org/namespaces/inkscape"
   width="1080"
   height="1080"
   viewBox="0 0 285.74999 285.75001"
   version="1.1"
   id="svg5156"
   inkscape:version="0.92.3 (2405546, 2018-03-11)"
   sodipodi:docname="hero_birds.svg">
  <defs
     id="defs5150" />
  <sodipodi:namedview
     id="base"
     pagecolor="#ffffff"
     bordercolor="#666666"
     borderopacity="1.0"
     inkscape:pageopacity="0.0"
     inkscape:pageshadow="2"
     inkscape:zoom="0.35"
     inkscape:cx="610"
     inkscape:cy="560"
     inkscape:document-units="mm"
     inkscape:current-layer="layer1"
     showgrid="false"
     units="px"
     inkscape:window-width="1366"
     inkscape:window-height="715"
     inkscape:window-x="-8"
     inkscape:window-y="-8"
     inkscape:window-maximized="1" />
  <metadata
     id="metadata5153">
    <rdf:RDF>
      <cc:Work
         rdf:about="">
        <dc:format>image/svg+xml</dc:format>
        <dc:type
           rdf:resource="http://purl.org/dc/dcmitype/StillImage" />
        <dc:title></dc:title>
      </cc:Work>
    </rdf:RDF>
  </metadata>
  <g
     inkscape:label="Layer 1"
     inkscape:groupmode="layer"
     id="layer1"
     transform="translate(0,-11.249983)">
    <g
       transform="matrix(8.4553543,0,0,8.4553543,-914.18201,-270.6663)"
       id="g5088">
      <g
         id="g448"
         transform="matrix(0.01403103,0,0,-0.01403103,11.087205,275.62119)">
        <path
           d="m 7521.08,16199.9 c -6.68,4.5 -13.29,9 -20.13,13 -6.75,4.2 -13.44,8.3 -20.42,11.9 -6.9,3.7 -13.8,7.2 -20.71,10.4 l -10.46,4.6 -10.54,4.1 c -7.05,2.5 -14.02,4.8 -21.07,6.6 -3.49,0.7 -6.98,1.7 -10.47,2.3 -3.48,0.5 -6.97,1.2 -10.39,1.6 -3.41,0.2 -6.83,0.6 -10.24,0.8 -3.35,-0.1 -6.69,0.1 -9.96,-0.1 -3.27,-0.3 -6.54,-0.4 -9.74,-0.9 l -9.3,-1.8 -9.01,-2.6 -8.57,-3.6 c -5.45,-2.9 -10.98,-5.7 -15.99,-9.6 -2.69,-1.6 -5.09,-3.8 -7.49,-5.9 -2.32,-2.2 -4.94,-4 -7.12,-6.5 l -6.9,-7.1 c -2.18,-2.5 -4.21,-5.3 -6.4,-7.9 -4.35,-5 -7.92,-11.2 -12.06,-16.7 -3.71,-5.9 -7.19,-12.2 -10.75,-18.3 l -9.85,-19.4 -8.86,-20.2 c -6.78,-15.5 -24.8,-22.5 -40.26,-15.7 -7.29,3.2 -12.75,9 -15.73,15.7 l -8.87,20.2 -9.85,19.4 c -3.58,6.1 -7.05,12.3 -10.81,18.3 -4.05,5.5 -7.7,11.7 -12.08,16.7 -2.13,2.6 -4.18,5.3 -6.36,7.9 l -6.87,7 c -2.18,2.6 -4.81,4.3 -7.17,6.5 -2.4,2.1 -4.81,4.3 -7.45,5.9 -5.03,3.9 -10.5,6.7 -16,9.6 l -8.55,3.6 -8.97,2.6 -9.35,1.8 c -3.17,0.5 -6.43,0.6 -9.69,1 -3.28,0.1 -6.62,-0.1 -9.98,0 -3.37,-0.2 -6.78,-0.6 -10.22,-0.8 -3.45,-0.4 -6.9,-1.1 -10.4,-1.6 -3.48,-0.6 -6.93,-1.6 -10.48,-2.3 -7.02,-1.8 -14.02,-4 -21.06,-6.6 l -10.52,-4 -10.45,-4.7 c -6.95,-3.2 -13.83,-6.7 -20.74,-10.3 -6.95,-3.7 -13.66,-7.7 -20.41,-11.9 -6.88,-4 -13.45,-8.5 -20.15,-13 8.47,13.8 18.95,26.4 30.36,38.2 5.63,6 11.81,11.5 18.1,17 6.37,5.4 13.11,10.4 20.1,15.2 7.1,4.7 14.52,9 22.27,12.9 7.81,3.9 16.03,7.1 24.57,9.9 4.34,1.2 8.65,2.7 13.14,3.6 4.52,0.8 9.04,1.7 13.66,2.3 4.66,0.3 9.34,0.9 14.07,1 4.74,-0.1 9.52,-0.2 14.3,-0.5 l 14.31,-2.1 14.07,-3.7 c 9.11,-3.2 18.1,-7 26.34,-11.8 4.34,-2.2 8.2,-4.9 12.06,-7.6 3.84,-2.7 7.88,-5.4 11.23,-8.6 l 10.43,-9.2 c 3.26,-3.2 6.28,-6.6 9.42,-9.9 6.58,-6.5 11.33,-13.8 16.93,-20.9 5.08,-7.2 9.68,-14.6 14.41,-22 4.07,-7.5 8.23,-15.1 12.09,-22.8 l 10.55,-23.1 h -55.98 l 10.57,23.1 c 3.88,7.7 8,15.3 12.13,22.8 4.72,7.4 9.32,14.8 14.4,22 5.58,7 10.37,14.4 16.95,20.9 3.13,3.3 6.15,6.7 9.41,9.9 l 10.44,9.2 c 3.34,3.2 7.41,5.8 11.19,8.5 3.85,2.7 7.77,5.4 12.06,7.6 8.29,4.8 17.22,8.6 26.38,11.8 l 14.02,3.7 14.32,2.1 c 4.8,0.4 9.52,0.4 14.32,0.5 4.72,-0.1 9.37,-0.6 14.02,-1 4.65,-0.5 9.16,-1.5 13.66,-2.3 4.51,-0.9 8.8,-2.4 13.16,-3.5 8.5,-2.8 16.71,-6.1 24.56,-10 7.7,-3.9 15.19,-8.2 22.23,-12.9 6.98,-4.8 13.74,-9.8 20.13,-15.2 6.25,-5.4 12.43,-10.9 18.1,-16.9 11.41,-11.8 21.87,-24.4 30.37,-38.2"
           style="fill:#231f20;fill-opacity:1;fill-rule:nonzero;stroke:none"
           id="path450"
           inkscape:connector-curvature="0" />
      </g>
      <g
         id="g452"
         transform="matrix(0.01459488,0,0,-0.01459488,11.087205,275.62119)">
        <path
           d="m 7731.19,16203.7 c -6.42,4.4 -12.78,8.7 -19.35,12.6 -6.49,4 -12.92,7.9 -19.63,11.4 -6.64,3.5 -13.27,6.9 -19.91,10 l -10.06,4.4 -10.13,4 c -6.78,2.4 -13.48,4.6 -20.26,6.3 -3.42,0.7 -6.71,1.6 -10.06,2.2 -3.35,0.5 -6.7,1.2 -9.99,1.5 -3.35,0.3 -6.64,0.7 -9.85,0.8 -3.21,-0.1 -6.43,0.1 -9.64,0 -3.08,-0.4 -6.22,-0.5 -9.29,-0.9 l -9.01,-1.7 -8.6,-2.6 -8.24,-3.4 c -5.31,-2.8 -10.55,-5.5 -15.44,-9.3 -2.51,-1.5 -4.82,-3.6 -7.13,-5.7 -2.3,-2.1 -4.75,-3.7 -6.91,-6.2 l -6.57,-6.8 c -2.09,-2.4 -4.05,-5.1 -6.14,-7.6 -4.2,-4.8 -7.69,-10.7 -11.6,-16.1 -3.64,-5.6 -6.92,-11.7 -10.41,-17.5 l -9.43,-18.7 -8.52,-19.4 c -6.5,-14.9 -23.83,-21.6 -38.71,-15.1 -6.99,3.1 -12.22,8.6 -15.09,15.1 l -8.52,19.4 -9.5,18.6 c -3.43,5.9 -6.78,11.9 -10.41,17.6 -3.85,5.3 -7.34,11.3 -11.6,16.1 -2.03,2.5 -3.98,5.1 -6.08,7.6 l -6.63,6.8 c -2.1,2.4 -4.61,4.1 -6.92,6.2 -2.31,2 -4.61,4.1 -7.13,5.7 -4.81,3.7 -10.05,6.4 -15.36,9.2 l -8.25,3.5 -8.59,2.5 -9.01,1.7 c -3.08,0.4 -6.15,0.5 -9.29,0.9 -3.15,0.2 -6.43,0 -9.65,0 -3.21,-0.1 -6.49,-0.5 -9.78,-0.7 -3.35,-0.4 -6.63,-1.1 -9.98,-1.6 -3.36,-0.6 -6.71,-1.5 -10.14,-2.2 -6.7,-1.7 -13.48,-3.9 -20.19,-6.3 l -10.13,-3.9 -10.05,-4.4 c -6.71,-3.1 -13.28,-6.5 -19.99,-10 -6.63,-3.5 -13.06,-7.4 -19.56,-11.4 -6.63,-3.9 -12.92,-8.2 -19.42,-12.6 8.18,13.4 18.24,25.4 29.2,36.8 5.45,5.8 11.39,11.1 17.4,16.3 6.15,5.2 12.64,10 19.35,14.6 6.78,4.5 13.97,8.7 21.38,12.5 7.54,3.7 15.44,6.8 23.61,9.5 4.19,1.2 8.38,2.5 12.65,3.4 4.33,0.8 8.73,1.7 13.13,2.2 4.47,0.4 9.01,0.9 13.55,1 4.54,-0.1 9.15,-0.2 13.76,-0.5 l 13.77,-2 13.48,-3.6 c 8.8,-3.1 17.4,-6.7 25.36,-11.3 4.12,-2.1 7.9,-4.7 11.6,-7.3 3.7,-2.6 7.54,-5.2 10.76,-8.2 l 10.05,-8.9 c 3.15,-3.1 6.01,-6.3 9.02,-9.5 6.35,-6.2 10.9,-13.3 16.28,-20.1 4.88,-6.9 9.36,-14 13.9,-21.1 3.91,-7.3 7.89,-14.6 11.6,-22 l 10.13,-22.2 h -53.8 l 10.13,22.2 c 3.77,7.4 7.68,14.7 11.67,21.9 4.54,7.1 8.94,14.2 13.83,21.2 5.38,6.7 9.99,13.8 16.28,20.1 3.07,3.1 5.94,6.4 9.08,9.5 l 10.06,8.8 c 3.14,3.1 7.05,5.6 10.76,8.2 3.7,2.6 7.4,5.2 11.6,7.3 7.89,4.7 16.55,8.3 25.28,11.3 l 13.56,3.6 13.76,2 c 4.54,0.4 9.15,0.4 13.69,0.5 4.54,-0.1 9.08,-0.6 13.55,-1 4.41,-0.5 8.74,-1.4 13.14,-2.2 4.26,-0.8 8.45,-2.2 12.57,-3.4 8.25,-2.7 16.14,-5.8 23.62,-9.5 7.47,-3.8 14.6,-7.9 21.44,-12.4 6.71,-4.7 13.21,-9.4 19.29,-14.6 6.07,-5.3 12.01,-10.5 17.39,-16.3 11.04,-11.4 21.1,-23.5 29.27,-36.8"
           style="fill:#231f20;fill-opacity:1;fill-rule:nonzero;stroke:none"
           id="path454"
           inkscape:connector-curvature="0" />
      </g>
      <g
         id="g456"
         transform="matrix(0.01321749,0,0,-0.01321749,11.087205,275.62119)">
        <path
           d="m 9880.23,16193.7 c -7.09,4.8 -14.11,9.6 -21.36,13.9 -7.18,4.4 -14.28,8.7 -21.68,12.6 -7.33,3.8 -14.66,7.6 -21.99,11 l -11.1,4.9 -11.19,4.3 c -7.48,2.7 -14.89,5.1 -22.37,7 -3.7,0.8 -7.41,1.8 -11.11,2.5 -3.7,0.5 -7.4,1.3 -11.03,1.7 -3.62,0.2 -7.25,0.6 -10.88,0.8 -3.55,-0.1 -7.09,0.2 -10.57,0 -3.47,-0.4 -6.94,-0.5 -10.33,-1 l -9.88,-1.9 -9.56,-2.8 -9.1,-3.8 c -5.79,-3.1 -11.65,-6.1 -16.98,-10.2 -2.85,-1.7 -5.39,-4 -7.94,-6.3 -2.47,-2.3 -5.25,-4.2 -7.56,-6.9 l -7.33,-7.5 c -2.31,-2.7 -4.47,-5.6 -6.79,-8.4 -4.63,-5.3 -8.41,-11.9 -12.81,-17.7 -3.93,-6.3 -7.63,-13 -11.41,-19.4 l -10.49,-20.6 -9.33,-21.5 c -7.26,-16.4 -26.39,-23.9 -42.74,-16.7 -7.79,3.4 -13.58,9.6 -16.74,16.7 l -9.41,21.5 -10.49,20.5 c -3.78,6.5 -7.49,13.2 -11.42,19.4 -4.32,5.9 -8.18,12.5 -12.81,17.8 -2.31,2.7 -4.47,5.7 -6.78,8.3 l -7.33,7.5 c -2.32,2.8 -5.1,4.6 -7.56,6.9 -2.55,2.3 -5.09,4.6 -7.95,6.3 -5.32,4.1 -11.11,7.1 -16.97,10.2 l -9.1,3.8 -9.49,2.8 -9.95,1.9 c -3.32,0.5 -6.79,0.6 -10.26,1 -3.47,0.2 -7.02,0 -10.57,0 -3.63,-0.1 -7.25,-0.6 -10.88,-0.8 -3.62,-0.4 -7.32,-1.2 -11.03,-1.7 -3.7,-0.7 -7.33,-1.7 -11.1,-2.5 -7.49,-1.8 -14.89,-4.2 -22.38,-6.9 l -11.18,-4.3 -11.11,-4.9 c -7.33,-3.5 -14.66,-7.2 -21.99,-11.1 -7.4,-3.8 -14.5,-8.1 -21.67,-12.5 -7.33,-4.3 -14.28,-9.1 -21.37,-13.9 8.95,14.7 20.13,28 32.17,40.6 6.01,6.4 12.57,12.2 19.21,18 6.78,5.7 13.96,11 21.36,16.2 7.56,4.9 15.43,9.5 23.68,13.7 8.26,4.1 16.98,7.5 26.08,10.5 4.63,1.3 9.18,2.8 13.96,3.8 4.78,0.8 9.57,1.8 14.5,2.4 4.94,0.4 9.88,1 14.89,1.1 5.02,-0.1 10.11,-0.2 15.2,-0.6 l 15.2,-2.2 14.96,-3.9 c 9.64,-3.4 19.21,-7.4 27.93,-12.6 4.62,-2.3 8.71,-5.1 12.8,-8 4.09,-2.9 8.33,-5.7 11.88,-9.1 l 11.11,-9.8 c 3.47,-3.4 6.63,-6.9 10.03,-10.4 6.94,-6.9 12.03,-14.8 17.97,-22.2 5.4,-7.7 10.26,-15.6 15.28,-23.4 4.32,-8 8.71,-16.1 12.8,-24.2 l 11.27,-24.6 h -59.48 l 11.26,24.6 c 4.09,8.1 8.49,16.2 12.81,24.2 5.01,7.8 9.95,15.7 15.35,23.3 5.86,7.5 10.95,15.3 17.97,22.2 3.32,3.5 6.56,7.1 9.95,10.5 l 11.11,9.8 c 3.55,3.3 7.87,6.1 11.88,9 4.09,2.9 8.26,5.7 12.81,8.1 8.79,5.1 18.28,9.1 28,12.5 l 14.89,3.9 15.19,2.2 c 5.1,0.4 10.11,0.5 15.2,0.6 5.01,-0.1 9.95,-0.7 14.89,-1.1 4.93,-0.5 9.72,-1.6 14.5,-2.4 4.78,-1 9.33,-2.5 13.96,-3.8 9.03,-2.9 17.74,-6.4 26.08,-10.5 8.17,-4.2 16.12,-8.7 23.6,-13.7 7.41,-5.1 14.58,-10.4 21.37,-16.1 6.64,-5.8 13.19,-11.6 19.21,-18 12.11,-12.6 23.22,-25.9 32.24,-40.6"
           style="fill:#231f20;fill-opacity:1;fill-rule:nonzero;stroke:none"
           id="path458"
           inkscape:connector-curvature="0" />
      </g>
    </g>
  </g>
</svg>
