<?xml version="1.0" encoding="UTF-8" standalone="no"?>
<!-- Created with Inkscape (http://www.inkscape.org/) -->

<svg
   xmlns:dc="http://purl.org/dc/elements/1.1/"
   xmlns:cc="http://creativecommons.org/ns#"
   xmlns:rdf="http://www.w3.org/1999/02/22-rdf-syntax-ns#"
   xmlns:svg="http://www.w3.org/2000/svg"
   xmlns="http://www.w3.org/2000/svg"
   xmlns:sodipodi="http://sodipodi.sourceforge.net/DTD/sodipodi-0.dtd"
   xmlns:inkscape="http://www.inkscape.org/namespaces/inkscape"
   width="1080"
   height="1080"
   viewBox="0 0 285.74999 285.75001"
   version="1.1"
   id="svg1716"
   inkscape:version="0.92.3 (2405546, 2018-03-11)"
   sodipodi:docname="phone_souko.svg">
  <defs
     id="defs1710" />
  <sodipodi:namedview
     id="base"
     pagecolor="#ffffff"
     bordercolor="#666666"
     borderopacity="1.0"
     inkscape:pageopacity="0.0"
     inkscape:pageshadow="2"
     inkscape:zoom="0.35"
     inkscape:cx="380.56057"
     inkscape:cy="489.91205"
     inkscape:document-units="mm"
     inkscape:current-layer="layer1"
     showgrid="false"
     units="px"
     inkscape:window-width="1366"
     inkscape:window-height="715"
     inkscape:window-x="-8"
     inkscape:window-y="-8"
     inkscape:window-maximized="1" />
  <metadata
     id="metadata1713">
    <rdf:RDF>
      <cc:Work
         rdf:about="">
        <dc:format>image/svg+xml</dc:format>
        <dc:type
           rdf:resource="http://purl.org/dc/dcmitype/StillImage" />
        <dc:title></dc:title>
      </cc:Work>
    </rdf:RDF>
  </metadata>
  <g
     inkscape:label="Layer 1"
     inkscape:groupmode="layer"
     id="layer1"
     transform="translate(0,-11.249983)">
    <g
       id="g5198"
       transform="matrix(3.7073184,0,0,3.7073184,-493.03466,-332.28938)">
      <g
         transform="matrix(0.35870263,0,0,0.35870263,95.000641,76.971253)"
         id="g3961">
        <g
           transform="matrix(0.0295875,0,0,-0.0295875,-43.271701,526.93854)"
           id="g3288">
          <path
             inkscape:connector-curvature="0"
             id="path3290"
             style="fill:#2e2d2d;fill-opacity:1;fill-rule:nonzero;stroke:none"
             d="m 9924.77,16300 h -2503.2 c -272.96,0 -495.05,-222.1 -495.05,-495.1 V 9594.2 c 0,-273.02 222.09,-495.12 495.05,-495.12 h 2503.2 c 272.93,0 495.03,222.1 495.03,495.12 v 6210.7 c 0,273 -222.1,495.1 -495.03,495.1" />
        </g>
        <g
           transform="matrix(0.02940769,0,0,-0.02940769,-43.271701,526.93854)"
           id="g3292">
          <path
             inkscape:connector-curvature="0"
             id="path3294"
             style="fill:#1b1919;fill-opacity:1;fill-rule:nonzero;stroke:none"
             d="m 7466.98,9254.48 c -219.66,0 -398.36,178.7 -398.36,398.42 v 6248.7 c 0,219.7 178.7,398.4 398.36,398.4 h 2518.51 c 219.61,0 398.31,-178.7 398.31,-398.4 V 9652.9 c 0,-219.72 -178.7,-398.42 -398.31,-398.42 H 7466.98" />
        </g>
        <g
           transform="matrix(0.02928781,0,0,-0.02928781,-43.271701,526.93854)"
           id="g3296"
           style="fill:#ffba0a;fill-opacity:1">
          <path
             inkscape:connector-curvature="0"
             id="path3298"
             style="fill:#ffba0a;fill-opacity:1;fill-rule:nonzero;stroke:none"
             d="m 10026.3,16300 h -327.79 c -21.02,0 -38.11,-17.1 -38.11,-38.1 v 0 c 0,-116.6 -94.5,-211.1 -211.1,-211.1 H 8074.55 c -116.59,0 -211.1,94.5 -211.1,211.1 v 0 c 0,21 -17.08,38.1 -38.11,38.1 h -327.82 c -184.06,0 -333.33,-149.2 -333.33,-333.4 V 9692.38 c 0,-184.12 149.27,-333.39 333.33,-333.39 h 2528.78 c 184.1,0 333.4,149.27 333.4,333.39 v 6274.22 c 0,184.2 -149.3,333.4 -333.4,333.4" />
        </g>
      </g>
      <g
         transform="matrix(0.48231273,0,0,0.48231273,69.540878,91.813694)"
         id="g4005">
        <g
           transform="matrix(0.11051706,0,0,0.11051706,140.52592,54.876435)"
           id="g3981"
           style="fill:#ffffff">
          <path
             inkscape:connector-curvature="0"
             style="opacity:1;fill:#ffffff;fill-opacity:1;stroke:none;stroke-width:8.27654076;stroke-linecap:round;stroke-linejoin:round;stroke-miterlimit:4;stroke-dasharray:none;stroke-opacity:1;paint-order:markers fill stroke"
             d="m 1846.1895,580 h -394.1231 v 62.58398 c 0.2483,3.96446 2.0604,5.50469 4.1875,6.60547 9.1249,3.18649 18.08,6.49794 42.3477,9.73243 20.5299,2.73951 44.4839,4.10532 70.1445,2.05273 25.6631,-2.05259 53.036,-7.52421 80.4082,-18.47656 27.373,-10.94824 54.7451,-15.05469 80.4082,-15.05469 25.6622,0 49.6134,4.10434 70.1426,9.58008 19.545,5.21423 29.1597,9.48993 36.9297,13.51562 7.7717,1.82087 9.7615,-2.75749 9.6035,-7.98828 v -62.07226 c 0,-0.18621 -0.042,-0.30404 -0.049,-0.47852 z"
             id="path3975"
             transform="matrix(0.26458333,0,0,0.26458333,0,85.333317)" />
          <path
             style="opacity:1;fill:#ffffff;fill-opacity:1;stroke:none;stroke-width:2.18983483;stroke-linecap:round;stroke-linejoin:round;stroke-miterlimit:4;stroke-dasharray:none;stroke-opacity:1;paint-order:markers fill stroke"
             d="m 402.93303,220.70155 c -1.25259,-0.005 -1.973,0.61548 -2.47272,1.10381 v 0.002 l -15.58459,15.4218 c -0.47519,0.50147 -0.65688,1.05775 -0.68316,1.69499 v 0.008 h 104.27841 c -0.0352,-0.84848 -0.37375,-1.20352 -0.67697,-1.53789 L 472.17893,221.7792 c -0.72266,-0.78177 -1.9576,-1.0687 -2.65462,-1.07746 h -33.18557 z"
             id="path3977"
             inkscape:connector-curvature="0" />
          <path
             sodipodi:nodetypes="csscccccccccc"
             inkscape:connector-curvature="0"
             id="path3979"
             d="m 467.58079,256.76979 c -3.31147,-0.65914 -6.70856,-1.23506 -10.49653,-1.23506 -6.79002,0 -14.03247,1.08616 -21.27491,3.98331 -7.24244,2.89715 -14.48488,4.34551 -21.27468,4.88858 -3.98002,0.31753 -7.52843,0.0876 -10.99954,-0.19708 -2.00151,-0.19709 -2.46685,0.9701 -2.4894,1.67084 v 29.18612 c 0.008,3.25475 1.18032,3.74374 3.93425,3.72119 h 62.60629 c 2.00151,0.0657 3.00117,-1.38617 2.98671,-3.7306 v -35.78607 c 0.0199,-1.48251 -1.9161,-2.18326 -2.99219,-2.51064 z"
             style="opacity:1;fill:#ffffff;fill-opacity:1;stroke:none;stroke-width:2.18983483;stroke-linecap:round;stroke-linejoin:round;stroke-miterlimit:4;stroke-dasharray:none;stroke-opacity:1;paint-order:markers fill stroke" />
        </g>
        <g
           inkscape:export-ydpi="99.959999"
           inkscape:export-xdpi="99.959999"
           transform="matrix(0.19923764,0,0,0.19923764,198.57645,43.581708)"
           id="g3993"
           style="fill:#ffffff;stroke:#ffffff">
          <path
             inkscape:connector-curvature="0"
             id="path3983"
             style="font-style:normal;font-variant:normal;font-weight:normal;font-stretch:normal;font-size:18.34550285px;line-height:1.25;font-family:'Futura Lt BT';-inkscape-font-specification:'Futura Lt BT, Normal';font-variant-ligatures:normal;font-variant-caps:normal;font-variant-numeric:normal;font-feature-settings:normal;text-align:start;letter-spacing:0px;word-spacing:0px;writing-mode:lr-tb;text-anchor:start;fill:#ffffff;fill-opacity:1;stroke:#ffffff;stroke-width:2.04582024;stroke-miterlimit:4;stroke-dasharray:none;stroke-opacity:1"
             d="m 5.4075596,213.38274 4.7647514,-2.72854 q 1.181007,3.01363 3.420848,4.56114 2.239842,1.50681 5.497797,1.50681 3.1765,0 5.049821,-1.58824 1.873326,-1.62897 1.873326,-4.31677 0,-4.15392 -7.371118,-7.04535 -0.773761,-0.28505 -1.221732,-0.48868 -5.701415,-2.23985 -7.9819817,-4.60187 -2.2805668,-2.40274 -2.2805668,-5.90501 0,-4.60186 3.2579555,-7.53402 3.25795,-2.9729 8.429948,-2.9729 4.398236,0 7.493289,1.91407 3.095054,1.91402 4.520408,5.45707 l -4.601859,2.56564 q -0.855212,-2.56564 -2.850705,-3.90957 -1.995497,-1.34387 -4.886928,-1.34387 -2.606361,0 -4.316785,1.5475 -1.669703,1.50682 -1.669703,3.78736 0,2.23986 1.669703,3.70594 1.669698,1.46608 6.923146,3.21721 5.945763,2.07696 7.981982,4.5204 2.076944,2.44348 2.076944,6.76025 0,4.96839 -3.543024,7.94128 -3.54302,2.97285 -9.529508,2.97285 -4.601855,0 -7.941257,-2.07691 -3.2986756,-2.1177 -4.7647514,-5.94579 z" />
          <path
             inkscape:connector-curvature="0"
             id="path3985"
             style="font-style:normal;font-variant:normal;font-weight:normal;font-stretch:normal;font-size:18.34550285px;line-height:1.25;font-family:'Futura Lt BT';-inkscape-font-specification:'Futura Lt BT, Normal';font-variant-ligatures:normal;font-variant-caps:normal;font-variant-numeric:normal;font-feature-settings:normal;text-align:start;letter-spacing:0px;word-spacing:0px;writing-mode:lr-tb;text-anchor:start;fill:#ffffff;fill-opacity:1;stroke:#ffffff;stroke-width:2.04582024;stroke-miterlimit:4;stroke-dasharray:none;stroke-opacity:1"
             d="m 58.023475,216.72215 q 5.945763,0 10.058926,-4.27604 4.153888,-4.31681 4.153888,-10.54761 0,-6.31231 -4.113163,-10.58835 -4.113167,-4.27608 -10.099651,-4.27608 -5.945763,0 -10.058925,4.27608 -4.113163,4.27604 -4.113163,10.58835 0,6.2308 4.113163,10.54761 4.113162,4.27604 10.058925,4.27604 z m -0.162893,4.68329 q -3.868819,0 -7.411838,-1.5475 -3.543025,-1.50682 -6.434455,-4.35751 -2.728538,-2.6878 -4.153888,-6.1901 -1.425355,-3.50231 -1.425355,-7.4933 0,-3.95025 1.466076,-7.49329 1.46608,-3.543 4.194613,-6.27153 2.769259,-2.76927 6.312283,-4.23535 3.54302,-1.46608 7.452564,-1.46608 3.990991,0 7.574736,1.46608 3.624471,1.46608 6.434455,4.23535 2.809984,2.76922 4.27606,6.31226 1.506806,3.543 1.506806,7.45256 0,3.90956 -1.46608,7.45256 -1.466076,3.50231 -4.235335,6.23084 -2.85071,2.85069 -6.515906,4.35751 -3.62447,1.5475 -7.574736,1.5475 z" />
          <path
             inkscape:connector-curvature="0"
             id="path3987"
             style="font-style:normal;font-variant:normal;font-weight:normal;font-stretch:normal;font-size:18.34550285px;line-height:1.25;font-family:'Futura Lt BT';-inkscape-font-specification:'Futura Lt BT, Normal';font-variant-ligatures:normal;font-variant-caps:normal;font-variant-numeric:normal;font-feature-settings:normal;text-align:start;letter-spacing:0px;word-spacing:0px;writing-mode:lr-tb;text-anchor:start;fill:#ffffff;fill-opacity:1;stroke:#ffffff;stroke-width:2.04582024;stroke-miterlimit:4;stroke-dasharray:none;stroke-opacity:1"
             d="m 93.046454,183.69466 v 18.0409 q 0,8.22634 2.321288,11.60649 2.362018,3.3801 7.941268,3.3801 5.53849,0 7.94124,-3.42084 2.40274,-3.42084 2.40274,-11.56575 v -18.0409 h 4.96839 v 20.60654 q 0,8.42996 -3.86883,12.78747 -3.86882,4.31677 -11.36212,4.31677 -7.533996,0 -11.443536,-4.31677 -3.90954,-4.35751 -3.90954,-12.78747 v -20.60654 z" />
          <path
             sodipodi:nodetypes="cccccccccccc"
             inkscape:connector-curvature="0"
             id="path3989"
             style="font-style:normal;font-variant:normal;font-weight:normal;font-stretch:normal;font-size:18.34550285px;line-height:1.25;font-family:'Futura Lt BT';-inkscape-font-specification:'Futura Lt BT, Normal';font-variant-ligatures:normal;font-variant-caps:normal;font-variant-numeric:normal;font-feature-settings:normal;text-align:start;letter-spacing:0px;word-spacing:0px;writing-mode:lr-tb;text-anchor:start;fill:#ffffff;fill-opacity:1;stroke:#ffffff;stroke-width:2.04582024;stroke-miterlimit:4;stroke-dasharray:none;stroke-opacity:1"
             d="m 132.01969,219.8172 v -58.88943 h 5.00912 v 38.77161 l 18.00017,-16.00472 h 6.92315 l -19.3441,16.2083 20.76944,19.91424 h -6.92314 l -19.42552,-18.69247 v 18.69247 z" />
          <path
             inkscape:connector-curvature="0"
             id="path3991"
             style="font-style:normal;font-variant:normal;font-weight:normal;font-stretch:normal;font-size:18.34550285px;line-height:1.25;font-family:'Futura Lt BT';-inkscape-font-specification:'Futura Lt BT, Normal';font-variant-ligatures:normal;font-variant-caps:normal;font-variant-numeric:normal;font-feature-settings:normal;text-align:start;letter-spacing:0px;word-spacing:0px;writing-mode:lr-tb;text-anchor:start;fill:#ffffff;fill-opacity:1;stroke:#ffffff;stroke-width:2.04582024;stroke-miterlimit:4;stroke-dasharray:none;stroke-opacity:1"
             d="m 186.87545,216.72215 q 5.94579,0 10.05893,-4.27604 4.15388,-4.31681 4.15388,-10.54761 0,-6.31231 -4.11314,-10.58835 -4.11319,-4.27608 -10.09967,-4.27608 -5.94575,0 -10.05889,4.27608 -4.11319,4.27604 -4.11319,10.58835 0,6.2308 4.11319,10.54761 4.11314,4.27604 10.05889,4.27604 z m -0.16276,4.68329 q -3.86883,0 -7.41182,-1.5475 -3.54305,-1.50682 -6.43447,-4.35751 -2.72854,-2.6878 -4.15388,-6.1901 -1.42535,-3.50231 -1.42535,-7.4933 0,-3.95025 1.46608,-7.49329 1.46608,-3.543 4.19462,-6.27153 2.76926,-2.76927 6.31226,-4.23535 3.54304,-1.46608 7.45256,-1.46608 3.99099,0 7.57476,1.46608 3.62447,1.46608 6.43443,4.23535 2.81,2.76922 4.27608,6.31226 1.50681,3.543 1.50681,7.45256 0,3.90956 -1.46608,7.45256 -1.46608,3.50231 -4.23534,6.23084 -2.8507,2.85069 -6.5159,4.35751 -3.62446,1.5475 -7.57476,1.5475 z" />
        </g>
      </g>
    </g>
  </g>
</svg>
